<!-- Generator: Adobe Illustrator 24.0.1, SVG Export Plug-In  -->
<svg version="1.1" xmlns="http://www.w3.org/2000/svg" xmlns:xlink="http://www.w3.org/1999/xlink" x="0px" y="0px" width="440px"
	 height="495px" viewBox="0 0 440 495" style="enable-background:new 0 0 440 495;" xml:space="preserve">
<style type="text/css">
	.st0{fill:#FFFFFF;}
</style>
<defs>
</defs>
<g>
	<path class="st0" d="M154,495c-2.3,0-4.7,0-7,0c-2.9-1.6-5.9-3.1-8.6-5c-3.6-2.6-7.1-5.4-10.5-8.4c-2.3-2.1-2.9-5.1-1.7-7.8
		c0.6-1.4,2.6-2.8,4.1-2.9c6.3-0.4,10.7-4.3,15.4-7.7c0.5-0.4,0.7-1.3,1.2-2.3c-1.1-0.2-1.7-0.4-2.3-0.4c-14.5,2-29,4.1-43.5,6.2
		c-3.4,0.5-6.5,0.2-9.7-1.2c-21.3-9.7-41.4-21.5-60.8-34.4c-7.1-4.7-13.2-10.6-18.4-17.5c-2.8-3.6-3.4-7.1-0.7-11.4
		c5.3-8.3,9.6-17,7.5-27.6c-1-5,2-7.7,7.2-8c2.8-0.2,5.7,0,8.5-0.1c4.9-0.3,9.8-0.7,15-1c0.2-2.8,0.3-4.9,0.7-7
		c0.5-3.1,1.7-4.1,4.8-3.8c4.7,0.5,9.1,2.2,12.7,5.4c2.4,2.2,3.4,4.8,1.9,8.1c-2.2,4.8-2.5,10-2,15.2c0.3,2.8,0.7,5.6,0.6,8.5
		c0,2.8,1.2,4.6,3.4,6.1c7.3,4.9,14.5,10.1,21.8,15c1.5,1,3.3,1.9,5,1.9c7.1-0.2,14.2-0.8,21.6-1.2c1.7-4.8,3.2-9.1,4.8-13.6
		c-3.2-2.7-6.2-5.1-9-7.7c-2.7-2.5-5.3-5.1-9.5-4.4c-1,0.2-2.6-0.2-3.3-1c-3.7-3.9-8.7-5.8-13.1-8.6c-1-0.6-1.7-1.6-2.4-2.5
		c-4.9-6.3-10-12.5-14.6-19c-2.4-3.4-4.6-6-9.3-6.4c-2.8-0.2-5.7-1.9-8.1-3.6c-3.6-2.7-6.9-5.7-10-9c-4.9-5.4-9.5-11.2-14.3-16.7
		c-9.8-11.3-17.2-24-22.7-38C4.6,272.8,1.7,262,0,251c0-9,0-18,0-27c0.3-0.4,0.6-0.8,0.9-1.2c3.9-5.1,7.5-5.5,11.9-0.8
		c2.7,2.9,5.3,6.1,7.2,9.5c3.7,6.7,7.4,13.5,10.3,20.5c5.9,14.7,11.2,29.6,16.8,44.4c0.4,1.1,1,2.2,1.8,3.8c1.3-5.6,1.2-6.1-0.4-9.8
		c-2.2-5.2-4.3-10.5-6.2-15.8c-1.2-3.4-2.1-7-4.8-9.7c-0.8-0.9-1.4-2.4-1.4-3.6c-0.5-9.2-4.3-17.4-7-25.9c-0.4-1.2-1-2.6-2-3.4
		c-6-5.1-8.6-12.2-11.2-19.2c-8.1-21.6-7.5-43.6-3.7-66c4.3-25.5,15.8-47.5,31.8-67.5c1.7-2.1,3.5-4,5.6-5.7c4.2-3.4,7.7-2.2,8.7,3
		c0.7,3.4,0.9,6.9,1.4,10.7c3.5-7.3,6.7-14.2,10.2-21.1c5.4-10.6,11.6-20.7,20.1-29.1c4.6-4.5,9.9-8.3,15.1-12.2
		c1.7-1.3,4-1.9,6.1-0.4c2.2,1.6,2.3,3.9,2,6.3c-0.2,1.5-0.6,3-1.1,4.3c-1.8,4.5-3.7,8.9-5.5,13.4c-0.4,0.9-0.5,1.9-0.9,3.1
		c5-5.8,9.4-11.5,14.4-16.5c13.8-13.9,29.7-24.8,49-29.6c5.4-1.3,11.2-1.7,16.8-1.7c6.1,0,7.7,3,5.3,8.5c-0.7,1.6-1.5,3.1-2.4,4.8
		c3.7,0.9,7.2,0.4,9.4,3.9c-2.4,15.2-15,21.7-26.3,29.4c4.7-0.9,6.9,1.5,8.5,5.3c1.3,3,2,6.4,4.9,8.7c5.4-0.8,10.8-1.5,16.5-2.4
		c0.7-3.8,1.3-7.4,2-11c0.7-3.8,1.4-4.4,5.3-4.5c4.3-0.1,8.7-0.1,13,0c5.9,0.1,6.5,0.6,7.4,6.3c0.5,3.1,1.1,6.1,1.6,9.3
		c5.9,0.8,11.3,1.5,17,2.2c1.9-3.7,3.8-7.2,5.5-10.8c1.3-2.7,3.2-3.9,6-3c5.1,1.6,10.1,3.3,15.1,5.1c2.1,0.8,3.1,2.4,2.8,4.7
		c-0.3,2.8-0.7,5.6-1,8.4c-0.2,2.1-0.1,4,2.1,5.1c4.3,2.1,8.6,4.3,13.3,6.6c3.3-3.7,6.5-7.2,9.4-10.5c-1.8-2.7-3.7-4.8-4.5-7.2
		c-1.1-3-2.9-4.7-5.8-5.6c-3-0.9-5.5-2.3-6-6.1c-10.3,1.1-18-2.6-23.2-11.8c-1.5-0.1-3.2,0.1-4.7-0.3c-3.2-0.7-6.5-1.4-9.5-2.7
		c-3.4-1.4-5.1-4.2-4.3-8.1c0.2-0.8,0.1-1.6,0.2-2c-2.2-2.6-4.4-4.7-5.9-7.2c-2.8-5-1.2-9.1,4.1-11.3c1.4-0.6,2.9-0.9,4.3-1.2
		c1.6-0.4,3.2-0.6,4.3-0.9c1.4-2.3,2.5-4.1,3.6-5.9c2,0,4,0,6,0c4.1,1.7,8.3,3.4,12.4,5c0.9,0.3,2,0.5,2.9,0.2c5.1-1.6,9.6,0,13.6,3
		c4.5,3.4,8.8,7.1,13.1,10.8c1.4,1.2,2.7,2.4,3.9,3.6c3.2-1,6.4-2.5,8.6,0.5c1.7,2.3,2.5,5.2,3.7,7.9c6.9-2.5,8-2.2,14.3,2
		c3.1,2.1,6.6,3.6,10.7,3.2c5.1-0.4,9.1,1.8,11.3,6.5c1.3,2.8,2.3,5.8,3.5,8.9c0.5-0.2,0.9-0.4,1.3-0.7c3.9-2.5,5.3-2.2,7.5,1.9
		c1.1,2.2,1.8,4.6,2.8,6.9c2,4.9,4.1,9.7,6.2,14.6c6.2,0.6,10.8,3.8,14.4,8.4c1.8,2.3,3.6,4.1,6.9,4.1c1.5,0,3.5,1.5,4.4,2.9
		c2.3,3.6,4.3,7.5,6.2,11.3c0.9,1.9,1.3,4.1,1.9,5.9c4.9,2.7,5.9,4.2,6.7,9.5c0.4,2.8,0.9,5.6,1.9,8.2c1.9,5.2,3.9,10.3,3.2,15.7
		c9.5,8.2,10.4,16,3,27c0.9,0.1,1.7,0.1,2.5,0.2c4.3,0.5,5.5,2.1,4.4,6.4c-0.5,2.1-1.3,4.2-2.5,5.9c-4.7,7-8.2,14.4-8.5,23.1
		c-0.1,3.9-2.4,6.8-5.6,9.1c-1.1,0.8-2.4,1.3-3.3,2.3c-0.5,0.6-0.3,1.8-0.5,3c5.3-1.6,9.9-2.7,14.3-4.4c6.6-2.6,11.7-0.1,12.8,7
		c0.4,2.8-0.1,5.7,0.2,8.5c0.3,2.2,1.1,4.4,1.7,6.6c0,2.7,0,5.3,0,8c-1.2,2.6-2.3,5.1-3.4,7.5c3.2,7.8,2.8,11.7-2.4,15.4
		c-3.3,2.4-4.3,5.1-3.9,8.9c0.9,8.1-1.8,15.1-6.6,21.4c-1.2,1.6-2.5,3.1-3.6,4.8c-0.6,1.1-1.3,2.5-1.2,3.6c1.1,6.6-1.6,11.7-6,16.2
		c-4.1,4.3-8.3,8.6-12.5,13c1.1,3.4,1.2,6.6-2.3,8.8c-7.9,5-16,9.5-25.5,10.8c-5.9,0.8-11.6,2.7-15.6,7.2
		c-5.6,6.1-10.6,12.8-15.9,19.2c-1.6,1.9-3.9,3.7-4.4,5.9c-1.1,4.6-4.3,5.9-8.2,6.8c-7,1.5-11.7,6.6-17.5,10.3
		c0.9,2.5,1.5,4.5,2.3,6.5c1.3,3.3,3.5,5.4,7.4,5.6c4,0.2,7.9,1.1,11.9,1.6c4.5,0.5,8.6-0.4,12.3-3c4.2-3,8.6-5.8,12.6-9
		c10.6-8.5,8.8-4,10.5-18.1c0-0.3,0.1-0.7,0.2-1c0.6-6.4,2.6-12.8-2.6-18.5c-1.7-1.9-1.1-4.7,0.8-6.4c4.6-4.1,10.1-5.8,16.7-5.8
		c0.2,3.6,0.3,6.7,0.5,9.6c2.7,2.7,5.6,2.2,8.7,2.1c5.5-0.1,11-0.3,16.4,0.3c5.3,0.6,7.9,3.8,7.6,9.3c-0.3,5.6,0.6,11,2.9,16.1
		c2.2,4.8,4.9,9.4,7.7,14.7c-2.8,6.5-6.5,13.1-12.9,17.8c-7.3,5.3-14.6,10.5-21.9,15.7c-10.2,7.2-20.3,14.5-30.6,21.7
		c-4.8,3.4-10,5.2-16,3.8c-1.6-0.4-3.3-0.2-5-0.4c-9.6-0.9-19.2-1.6-28.8-2.6c-10-1.1-20-2.5-30-3.8c0.1,0.7,0.5,1,0.9,1.2
		c7.1,5.2,14.2,10.5,22.8,13.2c4.6,1.5,5.2,5,1.9,8.5c-0.7,0.7-1.5,1.4-2.3,1.8c-3.7,1.9-7.3,3.9-11.1,5.5c-2.3,1-4.7,1.7-7.2,2
		c-3.6,0.4-6.6-0.7-8.2-4.3c-1.1-2.7-3.1-4.1-5.9-4.7c-4.1-0.9-7.2-3.2-8.9-7.3c-0.4-1-1.1-2.1-2-2.8c-7.7-6.1-15.5-12.1-23.3-18
		c-3.7-2.8-7.3-3.2-11.4-0.3c-4.5,3.1-9.4,2.9-14.2,0.3c-1.5-0.8-3-1.5-4.5-2.1c-1.1-0.4-2.5-0.9-3.3-0.5c-4,1.9-8.7,3.7-10.5,8
		c-2.1,5.1-5.7,7.4-10.5,8.9c-4.1,1.2-8.2,3.3-9.3,7.5c-1.3,4.7-4,6.9-8.1,8.6c-1.7,0.7-3.5,2.1-4.3,3.7
		C160.3,491.6,157.6,493.7,154,495z M73,326c-0.5-1-1-2.1-1.5-3.1c-0.2,0.1-0.5,0.3-0.7,0.4C71.5,324.2,72.3,325.1,73,326
		c0.6,1.2,1.2,2.5,1.8,3.7c0.2-0.1,0.5-0.3,0.7-0.4C74.6,328.2,73.8,327.1,73,326z M165,471c-3.6,2.3-7.2,4.6-10.9,6.9
		c0.2,0.3,0.4,0.6,0.6,0.9C158.7,476.9,162.1,474.3,165,471c1-0.6,1.9-1.2,2.9-1.8c-0.3-0.4-0.7-0.7-1-1.1
		C166.2,469.1,165.6,470,165,471z M75,107c2.5-3.5,6.6-5.8,7.5-10.4C78.4,99,77.4,103.5,75,107c-2.1,2.9-4.1,5.9-6.1,8.9
		c-1.1,1.5-2.3,2.9-3.2,4.4c-3.7,6.3-7.2,12.8-10.8,19.1c-0.9,1.5-1.9,3-2.9,4.8c-1.9-1.3-3.4-2.4-5.2-3.6c0.1,1,0,1.4,0.2,1.6
		c5.4,4.7,4.1,9.8,1.3,15.2c-1,1.9-1.5,4-2.4,6c-1.6,3.6-3.3,7.1-5.3,11.4c0.4,1.4,0.5,4,3.9,3.6c0.9-0.1,1.6-0.8,2.7-1.4
		c-1.2-0.9-2.1-1.5-3.3-2.3c2.3-7,4.7-13.9,6.9-20.9c1-3.2,2.4-5.4,6.2-5.3c1,0,2.1-0.7,3.4-1.1c-2.1-0.7-3.7-1.3-5.9-2.1
		c1.8-4.1,3.2-7.8,5-11.3c3.1-6.1,6.4-12,9.6-18C71.1,113,73,110,75,107z M158,379c1.7,0.7,3.4,1.3,5,2c1.2,0.6,2.3,1.4,3.5,1.8
		c9.2,2.8,16.7,7.8,22.6,15.5c3.7,4.8,6.1,4.6,11.8,2.2c3.3-1.4,6.9-2.4,10.5-2.7c3-0.3,5.9-0.4,8.7-1.7c3.7-1.7,7.1-1.1,10.1,1.8
		c1.2,1.1,2.6,2.1,4,3c5.4,3.6,11.4,2.4,15.8-2.3c3.5-3.7,7.1-7.8,11.5-10.2c9.1-4.9,18.7-8.7,28-13.1c4.8-2.3,9.1-2.8,12.7,2.1
		c0.2,0.2,0.6,0.2,0.9,0.3c4-1.9,6.8-3.9,8.1-7c2.9-6.7,7.5-12.1,12.4-17.4c4-4.2,5.7-9.1,4.3-15.1c-0.9-3.9-1.4-8.2,2.1-11.8
		c-5,3.3-9.7,6.8-13.9,11.1c1.5,3.5,2.9,6.7,4.2,9.9c1.7,4.3,1.6,4.9-2.1,7.5c-3.7,2.6-7.5,5-11.3,7.5c-4.2,2.7-4.7,2.6-8-1
		c-2.4-2.5-4.7-5.1-7.1-7.8c-4.4,2.2-8.4,4.2-12.5,6.1c-2.8,1.3-3.4,3.3-3,6.1c0.4,2.5,0.5,5,0.9,7.4c0.5,3-0.8,4.7-3.6,5.6
		c-3.3,1.1-6.5,2.6-9.9,3.6c-8.2,2.5-8.3,2.4-12.2-5.3c-1.3-2.6-1.9-5.8-4.8-7.3c-5.3,0.8-10.5,1.5-16.1,2.3
		c-0.6,3.7-1.1,7.1-1.7,10.5c-0.7,4-1.6,4.8-5.5,5c-3.7,0.1-7.3,0.1-11,0.1c-8.4,0-8.4-0.1-9.7-8.3c-0.4-2.6,0.1-5.4-2.1-7.3
		c-5.4-0.7-10.7-1.4-16.5-2.2c-1.6,3.3-3.2,6.8-4.9,10.1c-1.8,3.5-2.9,4.2-6.7,3.5c-3.3-0.5-6.5-1.4-9.7-2.2
		C161.3,380.4,159.6,379.7,158,379c-2.9-1.6-3.6-4-3.1-7.1c0.4-2.8,0.7-5.6,0.9-8.4c0.2-1.8-0.5-3.2-2.2-4c-4.2-2-8.4-4-13-6.3
		c-2.3,2.6-4.4,5.1-6.7,7.5c-2.9,3.1-3.8,3.4-7.3,1.5c-4.2-2.3-8.4-4.8-12.3-7.5c-3.9-2.7-4.1-3.7-2.1-7.9c1.5-3.1,3-6.2,4.4-9.2
		c-4.1-3.6-7.7-6.8-11.3-10c-1.4-1.3-2.8-1.6-4.9,0.5c5.8,2.8,4.7,7.6,3.6,12.1c-1.7,7,0.3,13,4.6,18.1c5.1,6.1,10.7,11.8,16.2,17.6
		c1.3,1.4,3.1,2.3,4.6,3.5c7.2-7.3,7.2-7.3,17.2-4C150.4,376.5,154.2,377.7,158,379z M38,225c-2.6-3.7-1.2-7.8-1-11.6
		c0.8-10.2,2-20.4,3-30.6c-1.2,5.1-2.1,10.4-2.8,15.6c-1,7.9-1.7,15.9-2.9,23.8c-0.6,3.9-3.3,4.8-6.3,2.2c-1.2-1-2.4-2.5-2.9-4
		c-1.4-4.1-2.7-8.2-3.4-12.4c-1.4-8.6-0.8-17.2-0.3-25.9c0.9-13.3,2.5-26.5,5.4-39.5c2.4-11.1,5.9-21.9,11.4-31.9
		c0.8-1.4,1.9-2.7,2.8-4.1c0.3,0.2,0.7,0.4,1,0.6C30.2,137,27.7,168.4,26.3,200c0.7-1.3,1.1-2.8,1.5-4.2
		c5.9-22.9,11.7-45.8,17.8-68.6c2.9-10.8,6.2-21.4,6.8-32.7c0.3-4.6,0.4-9.1-1.4-14.2c-1.5,1.3-2.7,2.2-3.6,3.3
		c-12.5,14.6-22.2,30.9-26.5,49.8c-2.2,9.7-3.6,19.6-4.9,29.5c-2.4,18.8-0.3,37.2,6.4,55c1.7,4.5,4.3,8.2,8.3,11
		c1.4,1,2.9,2.6,3.2,4.2c2.6,12.4,9.1,23.6,11.4,36.1c0.1,0.8,0.5,1.5,1,2.7c-0.2-4.8-0.4-9-0.7-13.2c0-0.5-0.3-1-0.5-1.4
		c-3.7-5.7-4.8-12.3-6.8-18.7C36.9,234.1,36.2,229.6,38,225c0.9-2.3,2-4.6,2.9-6.9c1.7-4.2,3-8.5,4.9-12.5
		C58.7,179.5,74,155,90.3,131c0.6-0.8,1.5-1.4,2.2-2.1c0.3,0.2,0.6,0.4,0.9,0.6c-0.9,2-1.6,4.2-2.7,6.1c-6.7,11.5-13.5,23-20.2,34.5
		c-0.7,1.1-1.2,2.3-1.8,3.5c1.6-0.8,2.7-1.8,3.6-2.9c9.7-11.8,17.9-24.5,24.6-38.1c2.3-4.6,3.7-9.6,5.2-14.5c0.9-3,1.4-6.2-0.3-9.8
		c-1.7,0.6-3.7,0.9-4.9,1.9c-4,3.5-8.2,6.9-11.3,11.1c-16.5,21.7-28.4,45.8-36.9,71.6C45.2,203.6,41.6,214.3,38,225z M260.9,175.2
		c0,0.3,0,0.6,0,1c6.1,0,12.3,0,18.4,0c6.2,0,12.3,0,18.5,0c6.3,0,12.7-0.1,19,0c6,0.1,12.2-0.5,18.2,0.4c0.1,0.4,0.2,0.8,0.3,1.3
		c-20.1,14.6-40.2,29.3-60.4,43.9c21.8-7.1,42.9-16,64.6-23.7c2.9,7.1,2.4,13.9,3,21.2c4.4-3.1,8.1-2.2,11.4,0.7
		c6.6-1.7,9-0.4,11.2,5.7c0.5,1.4,0.9,2.9,1.1,4.4c0.5,4.6,0.9,9.3,1.3,13.4c0,0.1,0.1-0.4,0.1-0.8c0.6-7,1.3-7.7,8.2-9
		c2.4-0.4,4.8-1,7.9-1.7c0-3.7,0-7.2,0-10.6c-0.1-6.4-0.7-7.2-6.9-7.9c-7.8-1-8.7-2-10.1-9.8c-0.5-2.9-2-5.6-2.6-8.4
		c-0.6-2.4-1-4.9-0.8-7.3c0.2-2.7,1.2-5.4,2-8.3c-4.9-2.4-7.5-6.6-10.4-10.8c-2.3-3.3-5.4-6.4-8.6-8.9c-2.8-2.2-6.3-3.7-9.5-5.4
		c-5.2-2.8-6.6-8-3.4-13c0.4-0.7,0.8-1.4,1.2-2.1c-3.5-5.9-6.8-11.7-0.8-17.3c0-4.1,0-7.7,0-11.3c-6.1,0.6-6.1,0.6-10.7-3.6
		c-2.3-2.1-4.7-4.2-7.1-6.3c-3.7-3.1-3.8-3.5-2.3-8.1c1-2.9,1.9-5.9,2.9-9c-6.1-1.5-13.2,1.5-16.5-6.2c-1.3,1.2-2.4,2.2-3.5,3.2
		c-2.5,2.6-5.5,3.1-8.7,1.6c-4.2-1.9-8.4-4.1-12.6-6.2c-2.2-1.1-3.2-2.8-3-5.3c0.1-1.3,0.1-2.7,0.3-4c1.7-8,2.6-8-7.7-11.7
		c-1.2-0.5-2.6-0.7-3.9-1c-2.6-0.6-4.5,0.1-5.6,2.8c-1,2.3-2.2,4.5-3.3,6.7c-1.4,2.8-3.7,4.1-6.9,3.7c-4.5-0.5-8.9-1-13.4-1.6
		c-3.4-0.5-4.6-1.6-5.2-5c-0.4-2.5-0.8-4.9-1.1-7.4c-0.3-2.1-1.4-3.3-3.6-3.4c-4.8-0.3-9.6-0.7-14.9,0.7c-0.4,2.7-0.8,5.4-1.3,8.2
		c-1,5.9-1.9,6.6-7.6,7.2c-2.8,0.3-5.6,0.7-8.4,1.1c-7.1,1.2-8,0.7-11.2-5.8c-1.2-2.5-2.6-4.9-4-7.7c-5.9,2-11.3,3.3-16,6.7
		c0.4,3.5,0.6,6.6,1,9.7c0.4,3.4-0.9,5.7-4,7.2c-3.8,1.8-7.4,3.8-11.2,5.6c-3.8,1.8-5.4,1.5-8.5-1.5c-1.6-1.7-3.1-3.5-4.7-5.2
		c-1.1-1.2-2.3-2.2-3.9-3.6c-1.1,1.6-1.9,2.6-2.5,3.7c-4.9,9.1-9.7,18.2-14.5,27.4c-0.8,1.6-1.3,3.4-1.5,5.2
		c-0.9,7.8-3.3,15.3-6.2,22.6c-4.6,11.9-12,22.3-19.1,32.7c-4.9,7.2-11,13.4-17.7,18.9c-0.8,0.7-1.5,1.6-2.6,2.7
		c5,2.4,5.4,6.1,4,10.6c-0.8,2.5-0.9,5.2-1.2,7.9c-0.6,6-1.5,6.8-7.5,8c-9.9,2-9.4-0.6-9.4,11c0,10.3-0.3,8.7,9.1,10.3
		c6.6,1.1,7.3,1.7,7.8,8.6c0.2,2.2,0.6,4.4,1,6.6c5.1-5.9,10-11.1,11.7-18.7c1.5-7,4.5-13.6,10-18.7c1.1-1,1.3-2.9,1.8-4.5
		c0.9-2.9,0.5-6.3,3.3-9c21.1,8.2,42.1,16.5,63.1,24.7c0.1-0.3,0.2-0.5,0.3-0.8c-20.2-14.6-40.3-29.3-60.5-43.9
		c0.1-0.4,0.2-0.8,0.3-1.2c2.1-0.2,4.1-0.6,6.2-0.6c21.2,0,42.3,0,63.5,0c1.7,0,3.4,0,5,0c-22.3-7.3-44.9-12.7-67.5-19.5
		c0.9-2.3,1.4-3.9,2.1-5.3C123,120,148.4,100.4,182.9,93c3.8-0.8,7.7-2.2,12.3-0.4c-0.3,22.8-2.5,45.6-2.8,68.4
		c1-1.8,1.6-3.7,2.2-5.6c6.3-19,12.6-37.9,19-56.8c0.6-1.7,0.4-4,3.2-4.9c7.5,22.3,14.9,44.4,22.3,66.5c0.3-22.5-1.7-44.8-2.1-67.6
		c23.9,0.4,43.4,9.5,60.5,24.4c14.5,12.6,28.2,31.8,28.6,40.3C304.5,163.1,282.7,169.2,260.9,175.2z M207.7,383.6
		c5.4,0,10.4,0.1,15.3-0.1c0.9,0,2.3-1.4,2.6-2.5c0.7-2,0.9-4.2,1.1-6.4c0.7-5.6,2-7,7.4-7.7c3.1-0.4,6.3-0.7,9.4-1.1
		c6.5-0.8,6.7-0.7,9.6,5.1c1.5,2.9,2.1,6.4,5,8.6c5.4-1.1,10.6-2.6,15.7-5.6c-0.4-3.3-0.7-6.4-1.1-9.5c-0.4-3.4,0.7-5.8,3.9-7.3
		c3.6-1.7,7.1-3.7,10.7-5.5c5-2.5,6-2.3,9.9,2c1.9,2,3.8,4.1,5.8,6.3c5.7-2.5,10.5-5.6,15.1-9.6c-1.5-3.4-3-6.4-4.3-9.4
		c-1.9-4.4-1.6-5.4,2.1-8.6c2.8-2.3,5.8-4.5,8.5-7c3.3-2.9,6.4-3.4,10.4-1c6,3.6,8.5-0.2,9.8-4.8c0.3-1.1,0-2.3,0.1-3.5
		c0.2-2.8,0-5.7,0.6-8.4c0.7-3.5,0.1-6.2-3-8.2c-8.4-5.1-10.1-14-12-22.5c-1-4.6,1.9-7.9,6.8-8.5c0.9-0.1,1.9-0.2,3.2-0.4
		c-1.3-4.3-2.6-8.1-5.4-11.3c-4,8.5-7.6,16.9-11.9,24.9c-4.4,8.2-10.2,15.4-17.5,22.3c-13.3-20.4-26.2-40.1-39.2-59.9
		c3.1,12.6,7.1,24.8,10.9,37c3.8,12.3,8.2,24.4,11.5,36.8c-0.4,0.2-0.7,0.5-1.1,0.7c-19.3-14.6-38.6-29.2-57.9-43.8
		c-0.2,0.2-0.3,0.4-0.5,0.6c14.2,17.6,28.4,35.2,42.8,53.1c-1.5,1.1-2.5,2.1-3.6,2.6c-5.8,2.5-11.5,5.3-17.5,7.1
		c-18.7,5.5-37.7,5.8-56.9,2.7c-10.4-1.7-20.4-4.8-29.8-9.6c-1.4-0.7-2.6-1.6-4.3-2.7c14-17.6,28.1-34.2,41.7-51.3
		c-0.3-0.3-0.6-0.6-0.9-0.8c-18.7,14.1-37.3,28.2-56,42.3c-0.4-0.2-0.7-0.5-1.1-0.7c7.4-24.5,15.7-48.8,22.8-73.5
		c-13.4,19.5-26,39.4-39,59c-7.2-4.6-12.3-11.2-25.4-32.9c-1,3.4-2.3,6.1-2.7,8.9c-1.8,13.5-4.9,26.5-11.1,38.7
		c-1.4,2.7,0.2,4.4,1.6,6.2c1.4,1.7,3.2,1.5,5,0.9c0.9-0.3,1.8-0.8,2.7-1.3c4.1-2.3,7.8-2.1,11.3,1.4c2.3,2.4,5,4.4,7.6,6.5
		c4.8,3.9,5.1,5.4,2.2,11.1c-1.2,2.3-2.3,4.7-3.5,7.1c3.6,4,8.1,6,12.3,8.2c1.8,1,3.6,0.3,5-1.2c1.7-1.8,3.5-3.6,5.2-5.4
		c1.8-2,3.8-2.3,6.2-1c4.2,2.3,8.6,4.4,12.9,6.6c3.4,1.8,3.8,2.5,3.3,6.3c-0.4,3.4-0.8,6.9-1.2,11.1c5.3,1.7,10.5,3.4,15.3,4.9
		c0.9-0.8,1.4-1,1.6-1.4c1.3-2.5,2.6-5,3.9-7.6c2.7-5.6,2.9-5.8,9.2-5c3.3,0.4,6.6,0.7,9.9,1.2c5.7,0.7,7,2.2,7.8,7.9
		C206.6,377.5,207.2,380.3,207.7,383.6z M216.2,255.7c20.3,15.3,39.9,30.2,60.5,45.8c-8-24.9-15.6-48.7-23.3-72.9
		c20.7-14.9,41.1-29.7,61.5-44.4c-0.1-0.3-0.3-0.7-0.4-1c-24.8,0-49.5,0-74.4,0c-0.9-2.2-1.7-4-2.3-5.9
		c-6.6-19.7-13.2-39.5-19.8-59.2c-0.4-1.3-1.1-2.5-1.9-4.6c-0.8,2.5-1.4,4.1-1.9,5.6c-6.5,19.4-13,38.8-19.5,58.2
		c-2,5.8-2,5.9-8,5.9c-21.5,0-43,0-64.5,0c-1.5,0-3,0.2-5.5,0.3c21.2,15.3,41.6,30,62.2,44.9c-7.2,24.1-15.3,47.5-22.5,71.2
		c0.3,0.2,0.6,0.4,1,0.6C176.8,285.5,196.3,270.7,216.2,255.7z M210.9,406.9c-2.9,0.2-5.5,0.3-8.2,0.4c-14,0.8-27.8,2.1-41.6,4.6
		c-19.8,3.5-39.5,7.8-59.7,8.7c-3.8,0.2-6.7-0.5-9.7-2.6c-19.9-13.7-39.9-27.2-61.5-38.1c-1.3-0.7-2.9-1.4-3.5-2.6
		c-0.6-1-0.6-3.5,0-3.8c1.8-1,4-1.6,6.1-1.7c2.4-0.1,5.3-1.1,7.6,2.2c-1.6,1-3.1,2-4.3,2.8c8.3,4.5,16.6,8.9,25.6,13.8
		c0-2.4,0-4,0-5.6c-0.1-6.3-0.3-12.6,2.4-18.6c1.2-2.6,0.4-3.3-3.9-5.4c-0.9,1.7-2,3.4-2.7,5.2c-1.4,3.7-4,4.8-7.8,4.7
		c-6.5-0.1-13,0.1-19.5,0.4c-5.1,0.2-6.7,2-5.6,6.9c0.8,3.3,0.5,6.3-0.7,9.3c-2.2,5.2-4.3,10.5-7,15.4c-1.8,3.3-1.8,6,0.6,8.6
		c3.2,3.6,6.1,7.6,9.9,10.5C47,437.7,69,449.5,91.6,460.2c1.8,0.9,4.2,1,6.2,0.7c12-1.6,24-3.3,36.1-5.1c27.6-4.2,54.5-10.8,80.5-21
		c4.4-1.7,5-2.4,4.4-7C217.6,420.3,214.6,413.5,210.9,406.9z M244.8,408.7c-0.2,0.4-0.4,0.8-0.6,1.1c1,1.5,2,2.9,3.1,4.4
		c3.2,4.5,5.7,9.3,6.9,14.8c1,4.4,0.5,8.2-2.5,11.7c-0.8,1-1.4,2.2-2.2,3.5c1.2,0.5,2.1,1,3,1.3c31.2,9.1,63,13.8,95.4,14.3
		c3.7,0.1,6.7-1,9.7-3c18.1-12.5,36.3-24.8,54.5-37.2c4.3-2.9,6.7-7.2,8.3-11.2c-2.5-5.9-5.2-11-6.9-16.3
		c-1.6-5.3-2.2-10.9-3.2-16.4c-1.5,0.9-2.8,1.9-4.3,2.6c-11.1,5.2-21.2,11.9-30.9,19.2c-8.5,6.4-16.9,12.9-25.2,19.6
		c-6,4.8-12.8,6.1-20.2,5c-12.8-2-25.6-4-38.4-6.3c-13.3-2.3-26.2-6.2-39.7-7C249.4,408.6,247.1,408.7,244.8,408.7z M339.6,124.2
		c-6.3,3.3-6.6,4.7-2.5,11c0.9,1.4,1.9,2.8,2.6,4.3c0.5,1.1,0.8,2.4,1.1,3.6c-2,0.9-3.6,1.6-5.1,2.3c-0.7,3,0.7,4.5,2.7,5.6
		c1.3,0.7,2.7,1.3,4,2c7.2,3.5,13.5,7.9,17.2,15.3c0.7,1.4,2,2.5,3.5,4.5c-1.9-10.2-6.3-17.3-15.5-20.8c-1.7-0.6-3.4-1.5-5-2.4
		c-0.7-0.4-1.2-1.1-1.8-1.6c0.2-0.3,0.4-0.6,0.6-1c4.7,2,9.5,4.1,15,6.5c-1.5-3.6-2.4-6.6-4-9c-1.6-2.5-3.9-4.5-6-6.6
		c-2-2-4.9-2.8-6-5.9c3.1,1.6,6.2,3.3,9.7,5.1c-1.1-4.3-2.1-8-2.8-11.7c-0.7-3.6-2.3-7-1.4-11.6c3.3,3.8,3.4,7.9,4.7,11.5
		c1.3,3.6,2.1,7.4,3.4,12.1c1.5-3.5,2.5-5.9,3.6-8.3c2-4.4,2.2-4.6,5.2-6.3c-0.8,2-1.5,3.7-2.1,5.4c-1.4,3.7-3,7.4-4.1,11.2
		c-0.5,1.8-0.5,4.1,0.1,5.8c1.8,4.8,4.1,9.4,6.3,14.4c7.5-16.8,8.1-17.7,12.6-20c-1.2,2.2-2.1,3.7-2.9,5.3c-2,4-3.9,8.1-5.8,12.2
		c-3.2,6.9,0.1,12.6,2.9,19c1.6-2.9,2.9-5.3,4.2-7.7c0.4,0.2,0.8,0.3,1.2,0.5c-0.5,1.7-0.8,3.4-1.4,5.1c-2.8,6.7-2,13,1.8,19.1
		c6.2,9.8,12.4,19.7,18.7,29.5c2.4,3.6,2.8,3.6,7.9,2c0.1-2,0.3-4.1,0.4-6.2c0.2-3.1,0.9-5.8,4.2-7.2c2.7-1.2,3.7-3.7,3.6-6.6
		c-0.1-4.2,0-8.3-0.1-12.5c-0.3-8.1-2.4-15.4-8.9-20.9c-3.3-2.8-6.4-5.9-9.5-8.9c-0.7-0.7-1.2-1.6-1.8-2.4c0.3-0.3,0.6-0.6,0.9-0.9
		c4.9,3.5,9.8,7.1,15.2,10.9c-0.6-2.5-1.2-4.6-1.6-6.7c-0.7-4.3-2.6-7.6-5.8-10.7c-3.2-3.1-5.8-6.9-8.6-10.4
		c-0.5-0.6-0.6-1.5-0.8-2.3c0.2-0.1,0.4-0.2,0.6-0.3c3.5,3.4,6.9,6.8,10.5,10.4c-1.4-13.2-8.8-22.1-18.5-29.4
		c-0.8-0.6-1.7-1.1-2.4-1.8c-0.7-0.7-1.3-1.6-2-2.3c0.2-0.3,0.5-0.7,0.7-1c2.2,1,4.4,2,6.5,3.1c2,1.1,3.9,2.5,5.9,3.8
		c0.2-0.3,0.5-0.5,0.7-0.8c-1.9-4.4-3.2-9.2-5.8-13.2c-2.5-4.1-6.2-7.4-9.4-11c0.2-0.3,0.4-0.5,0.7-0.8c2,1.1,4,2.2,6.1,3.4
		c0.5-3-2.3-5.4-0.3-9.4c3.4,8,6.4,15,9.6,22.3c2.2-2.9-0.1-6.5,3-9c1.2,4.4,0.5,8.3,0.3,12.2c-0.1,2.6,0.1,5.3,0.8,7.7
		c0.9,3.4,2.3,6.6,3.6,9.9c0.5,1.5,1.2,2.9,1.9,4.8c4.1-4.8,3.7-10.7,6.4-15.3c1.1,4.5,0.5,9-1.4,12.7c-3.2,6.1-2,11.8-0.1,17.7
		c0.8,2.7,1.5,5.5,2.3,8.2c0.3,1,0.8,1.9,1.6,3.7c2.1-3.8,3.8-6.9,5.4-10c0.8,1.3,0.9,2.3,0.6,3.1c-1.2,3.3-2.5,6.6-4,9.7
		c-0.9,1.9-1.2,3.5-0.9,5.7c1.5,8.9,2.7,17.8,3.7,24.9c0-7.9,5.8-15.8,9.4-25.2c-2.5,0.4-3.9,0.6-5.3,0.7c-3.1,0.2-4.6-1.2-3.6-4.2
		c0.8-2.4,2.3-4.8,3.9-6.9c4.1-5.3,4.3-8.6-0.1-14.6c-2.3,1.3-4.7,2.7-7.2,4c-0.8-3.1-0.9-3.2,0.9-6.5c2.4-4.4,2.7-8.9,0.9-13.5
		c-2.1-5.2-4.4-10.4-4.1-16.2c0-0.2-0.4-0.5-0.8-1c-1.5,0-3.3,0-5.4,0c-0.2-1.7-0.1-3.2-0.5-4.6c-1-3.8-1.9-7.7-3.2-11.4
		c-1.4-4-4.1-6.5-8.7-4.8c-2.1-2.5-3.9-4.9-5.8-7.2c-1.5-1.7-3.1-3.5-4.9-4.9c-3-2.3-4.6-1.7-6.3,1.5c-2,3.6-2.9,7.4-2.3,11.5
		c0.1,1.1,0.1,2.3,0.2,3.2c-4.9,4-4.9,4-2.9,9.8c0.8,2.2,2,4.2,2.8,6.4c1.1,3.1,1.9,6.3,2.9,9.4c0.3,0.9,0.4,1.8,0.7,3
		c1.1-0.2,1.9-0.3,2.7-0.4c5.1-0.6,7.4,1.7,7.2,7.4c-0.1,3.3-0.3,6.7-0.5,10c-0.2,2.5,0.8,4.1,3.2,5c0.9,0.3,1.9,0.7,2.7,1.3
		c2.1,1.5,2.1,2.4,0,5.4c-2.2-0.8-4.5-1.7-6.7-2.5c-2.4,1.7-2.6,3.7-1.1,5.7c1.4,1.8,3.1,3.5,4.9,4.9c3,2.4,6.3,4.4,9.3,6.7
		c1.9,1.5,3.5,3.3,5.1,5c-0.6,1-0.8,1.5-1.2,1.8c-3.3,3.2-3.2,5.1,0.2,8.1c1,0.9,2.2,1.5,3.2,2.4c5.1,4,5.9,13.1,1.5,17.9
		c-0.7,0.8-1.9,1.1-3.5,2.1c-0.5-2.8-0.8-5.1-1.4-7.2c-0.5-1.9-0.9-4.3-2.2-5.3c-3.4-2.6-5-6.2-6.3-10c-1.4-3.9-2.6-7.9-3.9-11.9
		c-0.7-2.3-2-3.4-4.7-1.7c1.1,3.7,2.1,7.4,3.4,11c1.9,5.5,3.2,11.2,7.9,15.3c1.1,1,1.7,2.9,2,4.5c0.4,2.6,0.5,5.3,0.4,8
		c-0.2,3.8,0.1,7.3,3.8,9.4c-2.5,2.8-3.2,3-5.3,1.1c-3.5-3.1-4.4-7.3-4.7-11.7c-0.1-2.4-0.4-4.8-0.6-7.4c-1.6,0.1-2.6,0.1-3.6,0.2
		c-4.8,0.7-6.8-1.3-5.7-6.1c0.3-1.3,1.1-2.5,1.2-3.8c0.2-1.9,0.1-3.8,0.1-5.3c-0.8-0.5-1.1-0.8-1.4-0.9c-6.2-1.3-7.1-2.5-6-8.7
		c0.6-3.1,1.6-6.1,2.4-9.2c0.5-2,1.3-4.2-0.6-6c-1.6,0.4-3.1,0.8-4.9,1.2c-0.1-3.7,1.1-6.5,3.3-8.5c3.4-3.2,4.2-7,3.8-11.3
		c-0.2-2.1,0.1-4.3,0-6.5c0-1.2-0.4-2.5-0.6-3.8c-3.2-0.1-5.1,1.5-7,3.1c-1.9,1.6-3.7,3.4-5.5,5.1c-0.3-0.2-0.6-0.4-0.9-0.7
		c0.5-1.5,1.1-3.1,1.4-4.6c0.9-4.4,2-8.7,2.5-13.2c0.5-4.3-1.6-7.3-5.5-8.7c-4.2,1.1-4.7,6.9-10,6.7c0.2-2.8,0.4-5.4,0.6-8
		c0.2-2.8-0.3-5.4-2.9-7c-2.8-1.7-5.8-3.2-8.7-4.7C339.1,109.7,336.6,112.8,339.6,124.2z M191.8,95.1c-21.5,3.8-40.1,11.5-56.2,24.4
		c-11,8.9-24.1,28-25.5,35.6c7.6,3.2,73.4,20.2,77.5,19.9C188.9,148.8,190.3,122.5,191.8,95.1z M245.9,175.4
		c11.8-1.9,73.4-18.8,76.7-21.1c-0.8-1.6-1.6-3.2-2.5-4.8c-7.8-13.6-18.1-25.2-30.4-34.8c-11.7-9.1-24.9-15.4-39.7-17.9
		c-2.9-0.5-5.8-0.5-8.7-0.7C240.4,104.1,244.3,171.8,245.9,175.4z M266.9,327.6c-17-21-33.6-41.6-50.7-62.7
		c-17.3,21.3-34,41.9-50.8,62.5C191.7,341.9,240.7,343.3,266.9,327.6z M261.5,231.6c15,22.9,29.4,45.3,44.3,67.9
		c2.1-2.4,3.7-4.1,5.2-5.8c7.7-9.3,13.5-19.8,17.7-31.1c2.1-5.6,4.3-10.7,0.8-17c-3-5.6-0.3-8.9,6.1-9.6c0.3,0,0.5-0.4,0.8-0.6
		c2.3-12.4,2.1-27.8-0.5-32.2C311.4,212.6,286.8,222,261.5,231.6z M104.7,231.4c2.8,5,3.1,5,2.5,11.2c-0.5,5.9-1.8,11.8-2.6,17.7
		c-0.3,2.4-0.7,5.2,0.2,7.3c4.5,11.1,10.7,21.1,19.2,29.5c0.8,0.8,1.7,1.3,2.9,2.1c14.7-22.6,29.2-44.9,44-67.7
		c-25.4-9.7-50.1-19.1-74.9-28.5c-3.3,7.8-2.3,14.8,0,21.8c3.2,0,6.2-2.8,9.6,0.3C105.3,227.1,105,229.2,104.7,231.4z M104.1,375.8
		c3.1,0.9,5.2,1.3,7.1,2c1.5,0.6,3,1.3,4.2,2.2c3,2.4,5.6,5.2,8.7,7.3c8.6,5.7,17.4,11.1,26.2,16.6c5.8,3.6,7.6,3.6,14.2,0.8
		c-2.6-1.9-5-4-7.7-5.6c-2.9-1.6-2.8-6.2-7.1-6.7c-0.2,2.2-0.4,4-0.6,6.2c-2.2-0.4-4-0.2-5.4-2.3c-1.5-2.3-3.6-4.4-5.8-6
		c-5.5-4.1-11.4-7.5-16.7-11.8c-8.5-6.8-15.9-14.5-21.3-24.2c-2.3-4.2-3.4-7.6-2.3-12c0.6-2.6,0.6-5.3,0.9-7.9
		c-0.3,0-0.6-0.1-0.9-0.1c-0.9,1.6-1.9,3.3-3.3,5.7c-1.9-2.3-3.4-4-4.7-5.8c-6.6-8.8-13.1-17.7-19.7-26.5c-0.8-1.1-1.9-1.9-2.9-2.9
		c-0.3,1.1-0.1,1.7,0.2,2.2c6.3,10.4,12.2,21.1,19.1,31.1c6.9,9.9,10.6,22,20.7,29.7c1.9,1.4,1.8,3.7,0.7,6.4
		c-1.4-1.8-2.5-3.4-3.7-4.9c-1.2-1.5-2.8-2.8-4.7-1.8c-4.6,2.4-7.9,0.2-10.4-3.2c-3.9-5.4-7.4-11.1-11-16.6c-1-1.6-0.9-3.1,0.2-4.7
		c0.7-1,1.4-1.9,2-2.9c0.2-0.3,0-0.9,0-1.5c-1.4,0.2-2.7,0.4-4,0.6c-3.1-4.4-6.2-8.5-8.9-12.9c-1.3-2-1.8-4.4-2.9-7
		c-1-0.7-2.4-1.7-3.9-2.7c-0.1,4.1-0.1,4.1-3.2,3.7c-1-4.1,0.1-7.9,1.5-11.7c3.8-9.6,7.6-19.2,11.6-28.7c1.6-3.8,1.8-7.6,1.5-11.9
		c-0.7,0.7-1.1,1-1.3,1.4c-5.3,10.4-10,21.1-13,32.4c-1.4,5.3-2.4,10.7-3.1,16.2c-0.5,4.1,0.6,5,4.6,5.5c2.1,0.2,4,0.7,5,2.7
		c2.6,5,5,10.1,7.4,15c-2.6,2.7-5,1.9-7.2,0.7c-4.8-2.5-8.1-6.6-10.2-11.3c-3.7-8-7.1-16.2-10.1-24.4c-7.1-19.2-13.8-38.6-20.9-57.7
		c-2.6-6.9-5.8-13.5-10.9-19c-1.2-1.3-2.6-2.4-4.7-4.2c-0.9,2.3-2.1,3.9-2.1,5.4c-0.1,7.7-0.7,15.5,0.5,22.9
		c4.1,26.1,15.5,49,32.9,69c0.4,0.4,0.9,0.7,1.3,1.1c-3.2-7.5-7-14.5-10.4-21.7c-7.1-14.9-13.8-30-18-46c-0.5-2-0.6-4-0.9-6.1
		c0.4-0.1,0.9-0.2,1.3-0.3c0.8,2.1,1.6,4.1,2.3,6.3c9.2,28,23.4,53.7,37.9,79.2c1.9,3.3,5.2,6,8.2,8.5c2.7,2.2,6,3.6,9.8,2.3
		c2.3-0.8,3.9,0.6,5.1,2.3c1.5,2.2,2.7,4.6,4.2,6.8c3.8,5.4,7.7,10.9,11.8,16.1C94.6,375.6,99.1,377.8,104.1,375.8z M395.2,331.9
		c4.7-5,9.1-9.7,13.5-14.4c2.4-2.6,4-5.8,2.9-9.1c-1.7-5.3,0.8-9,3.7-12.7c1.3-1.7,2.8-3.3,4.1-5.1c3.9-5.1,5.1-11,5-17.1
		c-6.4-3.7-7.4-5.2-7.7-12c-0.1-1.7,0.1-3.4-0.3-5c-0.4-1.8-0.5-4-2.9-4.7c-5,6-5,6-11.9,7.1c-0.3,2-0.5,4.2-1.1,6.2
		c-1.1,3.9-3.6,5-7.3,3.2c-1.9-0.9-3.7-2.2-5.6-3.2c-1.9-0.9-3.8-1.5-5.3,0.8c0,3.7,2.1,6.5,4.2,9.3c2,2.7,3.5,5.6,1.8,9.2
		c-2.1,0.5-4,1-5.8,1.4c-1.4,4.7,0.3,8.4,2.4,12.1c0.7,1.3,1.8,2.4,2.6,3.7c2.1,3.4,1.2,5.2-2.8,5.7c-1.1,0.1-2.2,0.4-3.8,0.7
		c1,3.3,2,6.3,3.1,10c-0.6,0.3-1.2,0.8-2,1.1c-3.1,1.4-3.5,3.7-3.3,6.9c0.2,3.4-0.7,6.9-1.1,10.4c-0.1,0.8-0.1,1.7-0.2,3.5
		c6.1-5.9,11.1-11.4,13.7-19c-2-2.7-3.9-5.3-5.9-8c0.3-0.3,0.7-0.6,1-0.9c2.2,1.6,4.3,3.3,6.8,5.2c3.1-5.9,5-12,6.3-18.3
		c0.3-1.2-0.2-2.7-0.7-3.9c-2.4-5.8-5-11.6-7.6-17.3c-0.7-1.5-1.4-3-2.2-4.5c0.3-0.2,0.7-0.3,1-0.5c5.6,4.9,7.8,12.2,12.1,19
		c1-3.1,1.7-5.3,2.4-7.5c1.5-4.8,2.4-9.7,0-14.5c-0.5-1-0.4-2.2-0.6-3.3c0.3,0,0.5-0.1,0.8-0.1c0.9,1.2,1.9,2.4,3,3.8
		c1.2-2.7,2.1-5,3.1-7.3c0.4,0.1,0.8,0.3,1.2,0.4c-0.8,8.7-3.6,17-4.8,25.9c3.4-3.9,6.7-7.8,10.1-11.7c0.5,1.2,0.5,2,0.1,2.5
		c-2.6,3.7-4.8,7.7-7.9,10.9c-3.9,4-6.4,8.3-7.4,13.7c-0.6,3.2-1.9,6.2-3.1,10.1c3.1-1.1,5.4-2,7.7-2.8c0.2,0.4,0.4,0.9,0.6,1.3
		c-1.5,0.9-2.9,1.9-4.4,2.8c-4,2.3-7.1,5.1-8.7,9.8c-2.2,6.2-6.4,11.2-11,15.9c-1.1,1.1-2.1,2.2-3.2,3.4c3.5-0.8,6.5-2.1,9.5-3.6
		C393.4,339.4,396.7,336.9,395.2,331.9z M337.2,96.5c1.9-0.5,3.8-1.6,5-1.1c7,3.1,14.2,6.1,17.9,13.5c0.2,0.4,0.6,0.7,1,1.1
		c1.1-0.7,2-1.2,2.7-1.7c0-3.5,0-6.6,0-10.2c-4.5-3.3-10-5.2-15.6-6.8c-3.4-0.9-6.8-1.7-10.1-2.7c-1.7-0.5-3.6-1.1-4.6-3.6
		c5,1.3,9.4,2.4,13.9,3.5c4.5,1.2,9,2.4,14.3,3.8c-4-8.8-8.7-15.6-17.8-18c-4.2-1.1-8.4-2-12.6-3.1c-2-0.5-4.2-1.1-5.3-4
		c6.8,1.5,13.1,2.9,20.6,4.6c-7-8.2-13.8-14.9-16.8-24.3c4.8,5.2,8.7,11.3,14.3,16.9c-0.1-5-1.3-8.9,1.2-12.6
		c0.6,1.8,0.8,3.7,0.8,5.6c0,5.9,1,11.2,6.1,15c2.1,1.6,3.7,3.8,5.5,5.8c1,1.1,2,2.2,3.3,3.6c1.1-3.9-0.7-7.7,2.3-11.7
		c1.1,7-0.2,13.4,2.8,19.4c2.4-5.3,4.9-10.3,2.8-15.7c-1.9-5.1-4.7-9.8-7.1-14.7c-0.1-0.2-0.6-0.1-1.2-0.3c-0.9,1.2-1.9,2.4-2.9,3.6
		c-3.2,0-4.8-1.4-5.5-4.3c-0.9-3.5-1.8-7.2-3.2-10.5c-3-6.9-4.7-6.2-9.6-4.5c-2.6-1-5-2.3-7.6-2.8c-6.2-1.3-9.3,1.6-8.9,7.8
		c0.1,2.1,0.8,4.2,1.2,6.3c1.1,5,0.8,5.6-3.6,7.7c-0.9,0.4-1.6,1-2.9,1.8c0.9,1.7,1.4,3.6,2.6,4.7c2.8,2.5,6,4.7,9,6.9
		c1.4,1,2.8,2,5.2,3.6c-4,1.4-6.7,2.5-9.9,3.6C327,90.2,331.3,94.3,337.2,96.5z M342.5,235.3c1-0.4,1.6-0.5,2.2-0.8
		c5-2.4,6.6-1.8,7.8,3.4c1.2,5,1.9,10.1,2.6,15.2c1.3,9.7-3.1,18.4-4.7,27.7c-0.7-0.8-1.4-1.7-1.3-2.5c0.3-4.9,0.5-9.9,1.2-14.8
		c0.9-6.6,0.3-13-1.7-19.2c-0.6-1.8-1.7-3.4-2.9-5.6c-2.7,1.8-4.9,3.2-7,4.6c-1.5-0.3-3-0.6-5.8-1.2c1.7,3.5,2.9,6,4.1,8.4
		c2.5,5,5.3,10,7.6,15.1c1.3,2.9,1.5,6-0.2,9.4c-1.6-0.8-3-1.8-4.6-2.2c-1.3-0.3-3.3-0.5-4.1,0.2c-0.9,0.8-1.2,2.7-1.1,4
		c0.1,1.4,1.2,2.7,1.7,4.1c0.5,1.2,1.2,2.5,1.1,3.7c-0.3,4,1.9,6.6,4.5,9c4.4,4.1,10.2,6.9,12,14.5c2.2-2.8,3.7-4.7,5.2-6.7
		c-5.2-7.9-13.4-12.4-18-20c0.3-0.3,0.5-0.6,0.8-0.9c5.3,4.4,10.6,8.8,15.9,13.2c0.3-0.2,0.6-0.4,0.9-0.7c-1-7.8-1.9-15.5-2.9-23.3
		c0.4-0.1,0.8-0.2,1.2-0.2c2.6,4.7,2.8,10.3,4.8,15.7c2-3.6,3.8-6.9,5.5-10.1c0.3,0.2,0.6,0.3,1,0.5c0,7.4-6.8,13.3-5,20.5
		c3-2.6,5.9-5.5,9.2-8c4.3-3.3,5.8-7.5,5.2-12.6c-0.2-1.8-0.4-3.7-0.7-5.5c-0.5-0.1-0.9-0.2-1.4-0.3c-1.1,2-2.3,4-3.6,6.3
		c-2.7-3,0.1-7.7-3.6-10.1c-2.4,1.1-4.6,2.2-7.4,3.5c-1.7-6.4-3.6-12.4-0.9-17.7c2.9-5.7,2.7-11.2,2.3-17c-0.3-4.1-0.9-8.3-4.3-11.5
		c-1.3,0.9-2.5,1.7-3.8,2.5c-1.3-1.1-2.3-2.1-3.5-3c-1.8-1.3-3.6-1.2-4.8,0.7C344,227.2,342.4,230.8,342.5,235.3z M358.2,329.8
		c-0.3,0-0.5,0-0.8,0c-0.1,1.8-0.4,3.6-0.3,5.3c0.3,3.6-0.8,6.4-3.1,9.1c-3.7,4.3-7.2,8.7-10.8,13.1c-4.6,5.6-10,10.2-16.3,13.8
		c-0.9,0.5-2,0.6-3.3,0.9c-0.3-3.7,2.1-4.9,4.1-6.1c5.1-3,8.3-7.4,11-12.6c4.6-8.8,9.2-17.7,14.6-26.1c6.2-9.6,13.3-18.7,20-28.1
		c1.4-2,3.3-3.8,2.1-6.7c-0.4,0.1-0.7,0.1-0.9,0.3c-12.3,12.3-23.6,25.4-32,40.7c-2,3.6-4,6.6-8.9,5.2c-0.1,1.2-0.4,2-0.3,2.8
		c0.7,7.5-2.4,13.5-7.3,19c-2.3,2.6-4.5,5.4-6.1,8.5c-3.1,6-7.9,10.3-13.4,13.8c-2.5,1.6-5.1,3.1-8,4.9c1.3,2.2,2.4,4.1,3.8,6.5
		c4.7-2.9,8.9-5.5,13.2-8c2.2-1.3,3.5-2.9,4-5.4c0.2-0.9,0.7-1.8,1.1-2.9c6.2,3.2,11.6,2.5,15.7-3c7.4-9.6,14.6-19.4,25.3-26
		c-0.9-6.8,2.6-11.3,7.4-15.1c0.6-0.5,1.2-1.2,1.9-1.7c2.2-1.7,3.2-3.7,2.6-6.5c-0.7-3.4-0.1-6.7,2-9.5c1.7-2.4,1.4-4.9,0.8-8.3
		c-1.1,2.2-1.9,3.6-2.6,5c-2.8,5.7-5.5,11.4-8.4,17c-1,2-1.9,4.4-5.3,4.7C359.5,333,358.9,331.4,358.2,329.8z M285.8,17.5
		c3.4,5,6.3,9.6,9.5,14c1.3,1.8,3,3.1,5.5,2.7c3.8-0.6,7.7-1.2,11.6-1.9c0.2-4.8-0.6-5.3-7.8-4.3c-0.9-1.1-2-2.6-3.4-3.8
		c-4.8-4-9.7-8.1-14.8-11.8c-3.6-2.6-7.5-3.7-11.2-0.5c-6.1-2.1-10.9-6.9-17.8-6.3c-0.1,2.3-0.2,4.1-0.3,5.8
		c-3.8,0.3-7.2,0.2-10.6,0.8c-1.5,0.3-3.4,1.6-4.1,3c-1,2,0.6,3.8,2.3,5c1.8,1.3,3.8,2.5,5.7,3.8c-0.8,1.9-1.4,3.4-2.3,5.3
		c1.4,1.1,2.6,2.7,4.2,3.2c2.8,0.8,5.8,0.9,8.8,1.2c2,0.2,4.1,0.3,6.4,0.4c0,2.6,0,4.5,0,6.4c3.7,1.8,7,4,10.6,4.9
		c3.6,0.8,7.5,0.2,11.4,0.2c0.4,1.6,0.8,3.3,1.3,5.4c2.8,0.5,5.2,2.9,8.6,1.4c-1.1-4.6-2.2-9.1-3.3-13.7c-6.6-3.8-11.9,1.6-18.5,2.9
		c2.1-4,6.2-4.2,8.8-7c-3.4-1.5-6.5-2.7-9.4-4.1c-2.7-1.3-5.3-1.4-8.2-0.9c-3.9,0.7-7.9,1.1-11.9,1.3c-1.8,0.1-3.8-0.1-5.7-2.1
		c6-1.7,12.2,0.2,17.6-3.4c-5.8-5.1-13.5-5.5-19.8-9c6.8-1.5,12.5,2.5,18.8,3.9c-0.7-3.5-4.9-5.2-3-10c7.2,8.2,12.9,17.4,24.5,20
		c-1.1-2.3-2.1-4.2-2.9-6.1C285.8,22.2,284.5,20.1,285.8,17.5z M87.6,222.7c0.6,9.9-0.7,19.7-1.2,29.5c-0.5,10.1-0.8,20.3-1,30.4
		c-0.2,9.8,0,19.5,0,30.4c5.7-11.5,8.5-22.6,9.2-34.1c1-16.8,0.6-33.6-2.1-50.3c-0.6-3.6-0.6-7.5-3-10.7
		c-12.6,11-19.3,80.3-8.7,93.4C82.5,281.2,80.8,251.6,87.6,222.7z M51.1,127.6c25.2-27,43.8-57.8,55.2-92.9c0.4-1.1,0.1-2.4,0.2-3.5
		c-0.4-0.2-0.9-0.3-1.3-0.5C85.6,44.5,75.9,65.3,66.9,86.6c1.2-1.4,2-3,2.9-4.5c5.9-9.3,11.7-18.6,17.7-27.8
		c1.1-1.6,2.8-2.8,4.2-4.2c0.4,0.3,0.8,0.6,1.1,0.9c-0.9,1.7-1.6,3.4-2.6,5c-3.2,5.2-7,10.2-9.8,15.7
		C70.9,90.4,62.1,109.6,51.1,127.6z M241.7,439.6c6.5-4.1,7.8-9.5,3.9-16.5c-3.9-7-9.7-12.6-13.6-17c-6.4-1.5-10.9-2.6-15.6-3.7
		c4.9,9.2,8.6,18.2,10.4,27.9c0.7,3.8,0.2,6.8-2.9,9.4c-2.7,2.2-5.1,4.7-7.6,7c-1.8-0.1-3.3-2.8-5,0.1c1.1,0.6,2.3,1.2,3.4,1.9
		c4,2.7,7.6,1.9,11.5-0.7c3.6-2.5,7-5,9.6-8.6c0.8-1.2,2-2.1,3.2-3.4C240,437.4,240.8,438.4,241.7,439.6z M68.7,133.4
		c0.2,0.1,0.4,0.2,0.5,0.4c0.6-0.9,1.2-1.8,1.8-2.8c7.7-12.3,15.2-24.7,23.2-36.8c7.2-11,15-21.6,22.6-32.3c1-1.4,1.9-3.4,5.3-3.5
		c-10.5,16.3-21.2,31.3-31,48.3c3.6-1.7,5.9-3.5,8.4-3.9c6.5-1.2,9.9-5.3,12.2-11c1.1-2.6,2.7-5,3.8-7.6c2.6-6.6,5.2-13.3,7.5-20.1
		c0.8-2.4,1.4-5.2-1.2-8.1c-2.3,1.5-4.8,2.8-6.9,4.5c-9.8,8.3-16.9,18.7-23,29.9c-7.4,13.6-14.9,27.2-22.3,40.7
		C69.4,132,69.1,132.7,68.7,133.4z M181.3,29.8c-18.2,10.7-35.4,21.2-51.1,33.9c10.7-4.6,21.3-9.3,31.7-14.7
		c6.6-3.4,12.9-7.5,19.1-11.7c3.1-2.1,5.7-5,8.3-7.9c1.5-1.7,3-3.7,1.9-6.6c-0.8-0.2-1.7-0.6-2.7-0.7c-5.2-0.4-10.2,0.2-15,2.6
		c-16.1,8.1-29.9,19.3-43.3,31c-0.3,0.2-0.2,0.8-0.5,1.8c1.9-1.1,3.3-1.9,4.7-2.8c7.1-4.6,14.1-9.4,21.3-13.9
		c5.9-3.7,12-7.1,18.1-10.6C175.7,29.3,177.6,28,181.3,29.8z M171.6,15.2c-1.9,1.2-3.7,2.6-5.7,3.7c-14.7,7.6-27.8,17.7-40.7,28
		c-0.8,0.6-1.4,1.5-2.1,2.4c4.2,1.1,7.1-0.5,10-2.8c6.2-4.8,12.4-9.5,18.9-13.9c7.6-5.2,15.5-10,24.4-12.5
		c5.5-1.6,7.9-5.5,10.7-10.8c-2.6-0.4-4.5-1.1-6.3-0.8c-4.9,0.8-9.9,1.5-14.6,3C145.3,18.2,129,31.4,115.2,48
		c-0.2,0.2-0.1,0.7-0.2,1.4C151,22.5,162.4,15.4,171.6,15.2z M430.1,235.8c0.6-3.7,1.6-6.9,1.4-10.2c-0.3-5.7-3.6-7.5-8.9-5.3
		c-1.8,0.7-3.7,1.4-5.6,1.7c-4.8,0.8-7.2,2.7-8.3,7.3c-1.5,6.5-2.8,13-4.1,19.5c-0.1,0.7,0.1,1.5,0.2,2.8c3.7-1.2,5.3-3.8,6.7-6.5
		c-1.7-8-1.7-8-0.2-10.4c0.9,1.9,1.7,3.7,2.9,6c1.8-3,3.1-5.3,4.5-7.6c2.6-4.2,2.6-4.2,5.4-5c-1.8,5.1-6,9.2-6.4,15
		c2.5-0.3,4.5-0.6,6.6-0.9c0.1,0.3,0.2,0.6,0.4,0.9c-1.6,1.2-3.2,2.4-5.3,4c4.4,4.3,2.2,11.4,7.1,15.8c2.4-0.9,4.6-1.6,5.3-4.3
		c1-4-3.2-4-4.7-5.8c1.9-2.6,3.9-4.8,5.4-7.4C434.9,240.7,434.4,239.1,430.1,235.8z M45.9,218.1c-3.5,6.5-4.4,13.1-2.7,20.3
		c1.8,7.9,4.8,15.3,8.3,22.8c3.4-1.6,6.7-3.1,9.9-4.9c1-0.6,2.3-2,2.2-2.9c-0.4-5.2-0.3-10.5-2.2-15.7c-2.9-0.5-5.5-1-8.1-1.3
		c-6.4-0.8-7.2-1.6-7.4-8.2C45.8,224.8,45.9,221.5,45.9,218.1z M387.3,228.7c0.4,5.6-2.8,6.7-6.5,7.4c-2.1,0.4-4.2,0.8-6.4,1.2
		c-1.9,0.3-2.9,1.4-3.1,3.3c-0.4,3.6-0.9,7.3-1.1,10.9c-0.1,1.3-0.1,3.1,0.7,3.7c2.6,2.1,5.4,4,9,3.5c2.4-0.3,4.8-0.7,7.9-1.1
		c1-5.7,1.7-11.6,3.1-17.4C392,235.9,390.8,232.7,387.3,228.7z M131.3,476.7c0.4,1.2,0.4,1.8,0.7,2c4.9,3.2,9.7,6.4,14.7,9.4
		c1.2,0.7,2.9,0.8,4.3,0.6c2.5-0.3,3.5-2.5,1.7-4.3c-1.4-1.4-3.6-2.1-5.4-3.1c-1.3-0.7-2.7-1.1-4.2-1.7c0.5-1,0.6-1.4,0.9-1.5
		c0.8-0.6,1.7-1.1,2.6-1.5c10.1-4.6,19.2-10.6,27.8-17.6c1.5-1.2,3.9-1.4,6.3-2.2c0.4-1.2-0.3-2.4-2.3-2.3c-2,0.1-4,0.5-5.9,1.1
		c-6,1.9-12,3.9-18.5,6c0-0.1-0.5,0.5-0.5,1.1c0.1,3.8-2.4,5.6-5.3,7.2c-2.3,1.3-4.5,2.9-6.5,4.2c-0.3,1.9-0.6,3.4-0.9,5.5
		C137.6,478.5,134.7,477.7,131.3,476.7z M370.6,363.7c6.5,9.1,2.1,18.8,2.8,28.4c8.7-5.4,16.8-10.5,24.5-15.2
		c-1.7-1.5-3.4-3-5.2-4.5c-3.1-0.9-6.6-1-10.1-1.3c-3.6-0.3-6.9-1.3-8.2-5.3c-0.1-0.4,0.1-0.9,0.1-1.7c1.3-0.2,2.5-0.3,4-0.5
		c-0.2-1.1-0.3-2-0.6-3.5C375.5,361.5,373.4,362.5,370.6,363.7z M313.6,66.9c-0.5-1.8-1-3.6-1.4-5.2c-2.8-0.3-5-0.5-7.2-0.8
		c3.4-3.4,9-1.5,11.6-6.5c-2.8-3.3-5.5-6.7-8.9-10.8c4.7-0.2,6.7,3,9.9,4.3c1-5.3,0.6-10.9,7.3-13.6c-5.1,0.1-6.3,4.1-8.9,6.1
		c-3.1-0.8-5.9-1.8-8.8-2.1c-3.6-0.3-5.3,1.8-4.5,5.3c0.5,2,1.3,4.1,2.5,5.9c2.4,3.6,2.3,4.8-1.2,7.3c-0.8,0.6-1.6,1.1-2.3,1.6
		C301.7,65.4,306.3,68.9,313.6,66.9z M154.3,59.6c-8,3.4-15.6,6.6-23.7,10.1c3.7,4.1,6.8,7.6,10.1,11.3c2.8-1.4,5.2-2.6,7.5-3.8
		c8.6-4.3,8.6-4.3,6.8-14C154.8,62.2,154.6,61.2,154.3,59.6z M151.6,382.7c5.2,7.4,10.5,14.8,18.7,19.4c4.9,2.8,9.7,1.6,15.4,0.7
		c-4.2-5.6-7.5-10.3-13.7-12.4C165.2,388.2,158.4,385.3,151.6,382.7z M254,402.2c6.4,1.2,6.5,1.1,14.5-3.2c2.3-1.2,4.2-2.8,4.9-5.3
		c0.9-3.4,3.3-5.5,6.4-6.5c3.3-1.1,6.7-1.9,10.1-2.4c2.9-0.4,5.4-1.1,7.3-3.4c-1.2-3.6-3.8-2.6-5.8-1.7c-9.4,4.2-18.8,8.4-28.1,13
		C259.3,394.5,256.5,398,254,402.2z M54.5,299.9c4.3-13,9.7-25.5,16.5-37.4c2.7-4.7,3-9.8,3.7-16C62.3,263,56,280.6,54.5,299.9z
		 M258.2,457.5c6.6,5.4,12.1,10.1,17.8,14.7c5.5,4.4,7.8,4.6,14.8,1.4c-5.7-4.2-11.2-8.4-16.8-12.6
		C269.6,457.7,264.7,456.9,258.2,457.5z M59.2,189.4c-4.3,6.5-7.7,13.4-11.1,21.4c5.1-0.9,9.2-1.5,13.6-2.3c0.7-5.4,1.4-10.3,2-15.2
		C64,190.8,62.2,190,59.2,189.4z M316.3,96.6c4.6,4,8.9,7.6,13.4,11.5c2.1-1.9,3.9-3.4,5.3-4.7c-5.4-4.8-10.5-9.2-15.7-13.8
		C318.4,91.6,317.4,93.9,316.3,96.6z M289.1,390.7c-4.5-1-7.8,1-10.1,4.1c-1.9,2.6-1.2,5.6,0.7,8.1
		C289.4,400,291.2,396.2,289.1,390.7z M401,231.9c-0.4-0.3-0.9-0.6-1.3-0.9c-0.8,0.8-2,1.5-2.2,2.4c-1.8,8.7-3.4,17.5-5,26.3
		c-0.1,0.8,0.7,1.7,1,2.6c0.4,0,0.8-0.1,1.2-0.1C397.4,252.2,399.6,242.1,401,231.9z M99.6,265.9c1.9-9.5,4.8-19,3.7-28.9
		c-0.4-0.2-0.8-0.3-1.2-0.5c-1.6,1.9-3.1,3.9-5,6.2c1.6,0.2,2.3,0.3,3.7,0.5C97.4,250.6,98.5,258.2,99.6,265.9z M282.7,484.4
		c3.9,2.2,6.8,1.7,9.6,0.3c3.8-1.8,7.5-3.9,11.2-5.8c-3.5-0.2-7-0.7-10.5-0.4c-2.6,0.2-5.2,1.2-7.5,2.3
		C284.4,481.3,283.8,482.9,282.7,484.4z M376.8,265c-1.1-3.5-3.9-3.7-6-4.8c-3.3-1.8-5.1-4.2-4.3-8.1c0.1-0.7,0.1-1.5,0.2-2.8
		c-4,6.6-4.2,9-1.5,14.1c3.2-2.2,6.1-1.9,8.5,1.5C374,265.4,375.5,265,376.8,265z M379.5,209.9c0.2-0.4,0.4-0.7,0.6-1.1
		c-2.9-3.4-3.5-8.9-10.2-10.4c0.6,3.9,1,6.9,1.5,10.2C374.5,209.1,377,209.5,379.5,209.9z M305.7,77.8c5.1,2.8,10.9,2.6,13.4-0.2
		C315.1,72.9,310,72.9,305.7,77.8z M306.7,406.8c-4.6,2.7-9.9,0.1-14,4c5.6,1,10.8,1.9,16.8,2.9C308.4,411,307.7,409.2,306.7,406.8z
		 M85.2,344.8c-2.4,1.6-2.4,2.9-1.3,4.3c2.8,3.7,5.6,7.4,8.5,11.1c0.4,0.5,1.2,0.7,1.8,1c0.3-0.3,0.6-0.5,0.9-0.8
		C91.8,355.2,88.6,350.1,85.2,344.8z M130.6,403.3c-0.9,3-1.6,5.3-2.5,8.1c4.3,0.2,7.7-0.2,11.8-2
		C136.6,407.3,134,405.6,130.6,403.3z M61.1,260.7c-8.6,2.5-9.3,4.2-5.2,12C57.7,268.7,59.3,264.8,61.1,260.7z M139.5,384.8
		c3.8,4.2,4.8,4.5,8.6,2.8C144.6,382.1,142.9,381.5,139.5,384.8z M51.1,168.3c0.3,0.1,0.6,0.2,0.9,0.3c2.2-4.9,4.3-9.7,6.9-15.4
		c-1.6,0.5-2.5,0.5-2.6,0.9C54.5,158.7,52.8,163.5,51.1,168.3z M47.5,182.1c-0.5-0.2-1-0.4-1.5-0.6c-2.7,4.1-2.3,9.1-3.2,13.7
		C44.3,190.9,45.9,186.5,47.5,182.1z M274.6,400.9c-2.1,1.2-3.7,2.2-5.9,3.5c3.4,1,5.9,2,8.4-0.5C276.3,403,275.6,402.2,274.6,400.9
		z M72.6,302.4c-0.5-4.3-0.8-7.5-1.1-10.7c-0.2,0-0.4-0.1-0.6-0.1c-0.7,1.9-1.4,3.8-2.1,5.8C69.9,298.9,70.9,300.2,72.6,302.4z
		 M97.8,234.5c1.6-2.5,3.6-4,3.3-6.8C96,229.5,96,229.5,97.8,234.5z M43,156.1c0.3,0.1,0.6,0.2,1,0.3c0.8-2.6,1.6-5.1,2.5-7.7
		c-0.4-0.1-0.8-0.2-1.2-0.4C44.5,150.9,43.7,153.5,43,156.1z M29.3,215.2c0.3,0,0.7,0.1,1,0.1c0.5-3.7,1-7.4,1.5-11.1
		c-0.2,0-0.4-0.1-0.6-0.1C30.6,207.8,30,211.5,29.3,215.2z M337.5,330.7c-1.6-0.3-2.9-1-3.4,1c-0.1,0.4,0.4,1.4,0.9,1.6
		C336.6,333.8,337.3,332.9,337.5,330.7z M369.4,189.2c-0.4,0.2-0.9,0.3-1.3,0.5c0.7,1.2,1.3,2.5,2,3.7c0.3-0.2,0.6-0.3,1-0.5
		C370.5,191.7,369.9,190.5,369.4,189.2z M294.4,397.7c2.5-2,2.5-2,0.4-3.6C294.6,395.1,294.5,395.9,294.4,397.7z M162.9,480
		c3.5-0.9,3.5-0.9,4.3-3.6C165.7,477.6,164.7,478.5,162.9,480z M57,359.2c-1.2,0.3-2,0.3-2.2,0.6c-0.3,0.5-0.1,1.2-0.3,3
		C55.7,361.1,56.1,360.5,57,359.2z M370.4,341.5c-0.2-0.2-0.4-0.3-0.6-0.5c-0.4,0.5-0.8,1.1-1.2,1.6c0.2,0.2,0.4,0.3,0.6,0.5
		C369.6,342.6,370,342,370.4,341.5z M50.2,282.5c0.2-0.1,0.3-0.1,0.5-0.2c-0.3-0.6-0.5-1.3-0.8-1.9c-0.2,0.1-0.4,0.2-0.5,0.2
		C49.6,281.3,49.9,281.9,50.2,282.5z M269.5,475.7c-0.1,0.1-0.3,0.3-0.4,0.4c0.4,0.4,0.9,0.8,1.3,1.2c0.1-0.1,0.3-0.3,0.4-0.4
		C270.4,476.6,269.9,476.1,269.5,475.7z M351.7,338.8c0.1,0.1,0.2,0.1,0.4,0.2c0.2-0.4,0.3-0.8,0.5-1.1c-0.1,0-0.3-0.1-0.4-0.1
		C352,338,351.9,338.4,351.7,338.8z"/>
	<path class="st0" d="M102,428.9c-5.4,4.4-10.8,8.7-16.1,13.1c-2.3,1.9-4.6,3.7-7.8,6.4c-0.3-8.4,2-15.3,2.5-22.3
		c-2.4,1.5-4.8,4-7.4,4.4c-2.6,0.4-5.6-1.3-9.2-2.2c-1,2.1-2.3,4.7-3.9,7.9c-2.3-1.4-4.8-2.9-7.3-4.5c6.2-7.3,11.6-14.3,14.9-23.5
		c7.9,3.2,13.9,9.8,22.3,13.1c-4.2,4.8-3.4,10.1-4.8,16.1c4.6-3.8,8.8-6.3,10.9-11.5C98,427,100,428,102,428.9L102,428.9z
		 M66.7,424.3c4.6,2,6.6,1.6,8.3-1.2c1.7-2.9,1.1-5-2.6-7.7C70.5,418.3,68.7,421.1,66.7,424.3z"/>
	<path class="st0" d="M32.4,385.5c3.9,2.6,7.8,4.8,11.3,7.5c3.1,2.4,3.3,6,2.1,9.6c-1.3,3.8-4,6.1-8.1,6.4c-0.9,0.1-1.9,0-3,0
		c-1.1,5-0.4,9.6,1,14.2c-6.9-3.2-7-9.5-8-15.9c-0.9,2-1.8,3.9-2.8,6.1c-3.3-0.8-5.8-2.2-7.6-4.9C24.2,402.4,28.6,394.8,32.4,385.5z
		 M37.1,393.1c-2,3-3.7,5.7-5.4,8.3c3.7,3,5.9,3,7.9,0.4C41.8,398.9,41.2,396,37.1,393.1z"/>
	<path class="st0" d="M102,429c-0.1-0.8-0.2-1.6-0.5-3c3.6-0.4,7-1.1,10.4-1.2c6.2-0.2,8.8,2.9,8.1,9c-0.1,0.7-0.3,1.3-0.4,1.8
		c0.2,0.4,0.2,0.8,0.4,1c5.7,7.6,2.9,14.4-6.4,15.6c-3.2,0.4-6.4,0.7-10.2,1.1c2.8-7.9,0-14.9,0-21.9
		C103.5,430.6,102.5,429.8,102,429L102,429z M111.9,449.4c1.9-1.4,3.8-2.1,4-3.1c0.4-1.9,0.1-4.1-0.5-6c-0.2-0.8-2.2-1.7-3.1-1.4
		c-0.8,0.2-1.8,1.9-1.8,2.9C110.6,443.9,111.3,446.1,111.9,449.4z M109.8,435.5c4.3-1,5.2-1.9,4.8-4.4c-0.4-2.4-1.2-2.7-5.2-2
		C109.5,431.1,109.6,433.1,109.8,435.5z"/>
	<path class="st0" d="M138.9,433.3c0.3,0.5,0.5,0.9,0.8,1.3c4.9,7.1,2.7,13-5.7,14.6c-3.5,0.7-6.9,1.9-10.3,1
		c1.4-9.1-0.2-17.5-2.5-26.5c4.3-1.1,8.6-2.6,13.3-1.7c3.4,0.6,5.6,3.9,5.3,7.4C139.7,430.7,139.2,432,138.9,433.3z M130.7,445.4
		c4.4-0.4,5.6-1.9,4.9-5.7c-0.6-3.2-1.7-3.7-5.8-2.7c-0.1,0.4-0.4,0.9-0.3,1.3C129.9,440.6,130.3,442.8,130.7,445.4z M128.2,426
		c0.6,2.5-1,5.5,2.6,6.5c1.8,0.5,3-1.3,2.9-3.7C133.6,426,132.7,425.5,128.2,426z"/>
	<path class="st0" d="M52,412.7c2.3,0.3,3.7,0.4,5.3,0.6c0.4,3-1.3,4.7-3.7,6.6c-1-1.5-1.9-2.8-3.2-4.8c-1.8,2.5-3.2,4.6-4.7,6.7
		c2.4,3.3,6,3.2,9,4.5c-2.7,3.7-4,4.2-7.3,2.2c-3.5-2.1-7-4.5-10.4-6.7c5.9-7.5,11.5-14.6,14.7-23.9c4.3,1.9,8.2,4.5,11.9,7.5
		c0.7,0.6,0.1,2.8,0.1,5.4c-2.6-2.3-4.4-3.9-6.7-6C55.4,407.6,53.9,409.8,52,412.7z"/>
	<path class="st0" d="M205.1,427.6c-7,0.5-8.1,1.8-6.8,8.1c-2.2,1.5-4.6,2.1-7.2,1.3c2.7-9.4,5.4-18.5,8.3-28.6
		c6.7,7.6,10,16.3,16.4,22.8c-2.2,2.4-3.3,2.8-8.6,2.8C207.1,431.7,207.9,429,205.1,427.6z M199,424.8c1.9-0.9,2.7-1.3,3.8-1.8
		c-0.8-1.1-1.3-1.9-2.1-3.2C200.1,421.4,199.7,422.5,199,424.8z"/>
	<path class="st0" d="M188,430c3.2,6.4,1.8,8.5-3.6,10.3c-8.9,3.1-16-0.3-17.8-9.4c-0.2-1.1-0.6-2.3-0.7-3.4
		c-1-8.6,4.1-14.6,12.8-14.8c2.3-0.1,4.6,0.3,6.8,0.5c0.8,2.2,2.1,3.9,0.5,6.3c-1-0.9-1.8-1.7-2.7-2.3c-3.2-2.5-6.1-2.2-8.7,0.9
		c-3.7,4.5-2.8,14.1,1.6,18c3.6,3.1,8.2,2.1,10.1-2.3C186.7,432.7,187.2,431.8,188,430z"/>
	<path class="st0" d="M151.7,442.5c2.8-1.9,4.8-3.2,6.7-4.6c1.4,5.2,0.7,6.7-3.8,7.7c-3.3,0.7-6.6,2.2-10.2,1.1
		c0.5-8.6-0.3-16.9-4.1-25c2.5-1.5,5.3-2.3,8.5-1.6C147.9,427.7,150.2,434.5,151.7,442.5z"/>
	<path class="st0" d="M156.1,417.7c3-0.6,5.7-1.1,9-1.7c-0.9,9.4,0.4,17.8,3.7,25.8c-3.3,2.1-4.2,2.2-8.4,1.7
		C160.9,435,160.1,426.7,156.1,417.7z"/>
	<path class="st0" d="M374.7,435.5c-0.4-1.9-0.6-3.9-1.3-5.6c-0.7-1.7-1.8-3.2-2.8-4.7c-2.4-3.6-3.9-8.1-9.1-9
		c2.6-4.6,3.9-5.4,7.9-4.5c4.2,0.9,8.3,1.9,13,3c-0.8-4.5-3.3-6.8-7-8.3c1.6-3.2,4-4.5,7.6-5c-0.6,6.5,3.8,10.5,6.8,15.1
		c1.6,2.5,3.2,4.9,5.5,8.4c-8-0.6-14.4-3.4-21.8-4.1c2.1,4.6,3.9,8.7,8.6,11.2c-1.5,2.8-3.8,4.1-6.7,4.5
		C375.2,436.1,374.9,435.8,374.7,435.5z"/>
	<path class="st0" d="M300.9,422.8c2.9,9.2,5.9,18.5,8.9,28c-3.2,1.3-6.6,0.2-10.3-0.8c0.5-1.7,0.9-3,1.2-4.2c-1-1.9-5.3-2.6-9-1.5
		c0.2,0.7,0.5,1.5,0.7,2.2c0.1,0.6,0.2,1.2,0.2,1.8c-4,0.6-5.2,0.4-7.9-1.4c5-8.1,10-16.2,14.9-24.4
		C299.9,422.7,300.4,422.7,300.9,422.8z M298.4,435.1c-0.4-0.1-0.8-0.2-1.2-0.3c-0.8,1.6-1.6,3.2-2.7,5.4c2.2,0,3.5,0,5.3,0
		C299.2,438.1,298.8,436.6,298.4,435.1z"/>
	<path class="st0" d="M399.3,413.6c1.1,1.5,2.1,2.9,3.4,4.6c-1.2,2.5-4,3.3-6.4,4.7c-1.3-9.8-2.5-19.2-3.8-29.8
		c9.2,5.5,17.2,10.2,25.5,15.2c-1.6,3-4.7,4.3-7.8,5.6C406.4,408.1,405.8,408,399.3,413.6z M398.4,404.4c0.2,1.6,0.3,2.6,0.4,4.1
		c1.3-0.8,2.1-1.3,3.4-2.1C400.8,405.6,399.9,405.2,398.4,404.4z"/>
	<path class="st0" d="M375.4,436.4c-1.8,3.2-4.8,4.8-7.9,6.1c-2.2-1.1-2-5.2-5.2-4c-1.9,0.7-3.7,2.3-4.8,3.9
		c-0.5,0.8,1.1,2.8,2.2,5.1c-1,1.8-3.6,3.1-6.9,4.7c1-10.3-2.6-19.6-2.9-29.9c1.7,0.7,2.9,1.1,4,1.7c4.5,2.8,8.9,5.8,13.5,8.5
		c2.3,1.3,4.9,2,7.3,3C374.9,435.8,375.2,436.1,375.4,436.4z M355.2,432.7c0.3,1.9,0.5,3,0.8,4.8c1.3-1,2.1-1.6,3.2-2.5
		C357.8,434.2,356.8,433.6,355.2,432.7z"/>
	<path class="st0" d="M276.4,423.3c-1.9,0-2.9-0.1-3.8,0c-1,0.1-1.9,0.4-3.8,0.8c0.6-2.3,1-4,1.6-6.3c6.6,1.1,12.7,2.1,19.3,3.2
		c0,2.1,0,4.1,0,6.7c-2.6-1.3-4.5-2.3-7-3.6c-1.9,7.3-3.8,14-2.9,21.4c-3.3,1.2-6.2,0.1-9.3-1.4C275.5,438,274.7,430.7,276.4,423.3z
		"/>
	<path class="st0" d="M320.1,449c4.9,1.4,8.1-0.8,12.5-2.5c-0.6,2.8-1.1,4.8-1.6,7c-6.7-0.1-12.7-0.3-18.7-2.1
		c3-4.8,3.4-19.5,2-25.7c3.1-1.8,5.9-0.4,9.5,0.5C319.8,433.6,322.3,441.4,320.1,449z"/>
	<path class="st0" d="M258.8,415.7c3.1,0.6,5.9,1.2,8.8,1.7c-3.5,6.8-5.4,18.9-4,24.9c-3.4,1.7-6.5,0.8-9.7-1
		C258.6,433.5,258.6,424.9,258.8,415.7z"/>
	<path class="st0" d="M337.1,426.7c3.1,0.4,5.9,0.7,9.1,1c-4.4,8.7-3.2,17.1-2,25.6c-3.3,1.5-6.3,1-9.6-0.8
		C339.3,444.7,337.6,436.2,337.1,426.7z"/>
</g>
</svg>
